# xmcd
#
# Track frame offsets: 
#        150
#        13628
#        33874
#        51999
#        66364
#        83307
#        97444
#        129690
#        143932
#        156990
#        179742
#        193416
#        219602
#        239941
#
# Disc length: 3401 seconds
#
# Revision: 0
# Processed by: cddbd v1.4PL0 Copyright (c) Steve Scherf et al.
# Submitted via: ExactAudioCopy v0.90b4
#
DISCID=de0d470e
DTITLE=Johnny Whitehill - Guitar Slinger
DYEAR=1900
DGENRE=Blues
TTITLE0=Hold On
TTITLE1=Easy
TTITLE2=Guitar Slinger
TTITLE3=Since You've Been Gone
TTITLE4=I'm Tired
TTITLE5=West End Blues
TTITLE6=Muddy's Blues
TTITLE7=Guitar Swinger
TTITLE8=No More Trouble
TTITLE9=Sun Is Shining
TTITLE10=Bone Picking
TTITLE11=As The Years Go Passing By
TTITLE12=Guilty
TTITLE13=Blow Wind Blow
EXTD=
EXTT0=
EXTT1=
EXTT2=
EXTT3=
EXTT4=
EXTT5=
EXTT6=
EXTT7=
EXTT8=
EXTT9=
EXTT10=
EXTT11=
EXTT12=
EXTT13=
PLAYORDER=
